<svg width="18" height="17" viewBox="0 0 18 17" fill="none" xmlns="http://www.w3.org/2000/svg">
<path d="M0.198794 1.24856C0.089003 0.849167 0.323776 0.436388 0.723174 0.326597V0.326597C1.12257 0.216806 1.53535 0.451579 1.64514 0.850977L5.48849 14.8323C5.59828 15.2317 5.36351 15.6445 4.96411 15.7543V15.7543C4.56471 15.8641 4.15193 15.6293 4.04214 15.2299L0.198794 1.24856Z" fill="#6c6c6c"/>
<path d="M17.4887 1.24856C17.5985 0.849167 17.3637 0.436388 16.9643 0.326597V0.326597C16.5649 0.216806 16.1521 0.451579 16.0424 0.850977L12.199 14.8323C12.0892 15.2317 12.324 15.6445 12.7234 15.7543V15.7543C13.1228 15.8641 13.5356 15.6293 13.6454 15.2299L17.4887 1.24856Z" fill="#6c6c6c"/>
<path d="M13.4718 1.6288C13.4914 1.49214 13.3965 1.36542 13.2599 1.34578V1.34578C13.1232 1.32614 12.9965 1.421 12.9768 1.55767L11.0511 14.9559C11.0314 15.0926 11.1263 15.2193 11.2629 15.239V15.239C11.3996 15.2586 11.5263 15.1637 11.546 15.0271L13.4718 1.6288Z" fill="#6c6c6c"/>
<path d="M4.05119 1.6288C4.03155 1.49214 4.12642 1.36542 4.26308 1.34578V1.34578C4.39975 1.32614 4.52646 1.421 4.54611 1.55767L6.47189 14.9559C6.49153 15.0926 6.39667 15.2193 6.26 15.239V15.239C6.12333 15.2586 5.99662 15.1637 5.97698 15.0271L4.05119 1.6288Z" fill="#6c6c6c"/>
<path d="M9.59375 2.79047C9.59375 2.37625 9.25796 2.04047 8.84375 2.04047V2.04047C8.42954 2.04047 8.09375 2.37625 8.09375 2.79047V14.2905C8.09375 14.7047 8.42954 15.0405 8.84375 15.0405V15.0405C9.25796 15.0405 9.59375 14.7047 9.59375 14.2905V2.79047Z" fill="#6c6c6c"/>
<rect x="4.09375" y="16.0405" width="1.5" height="9.5" rx="0.75" transform="rotate(-90 4.09375 16.0405)" fill="#6c6c6c"/>
<path d="M0.95908 1.68338C0.502492 1.59915 0.226513 1.12988 0.374817 0.689908V0.689908C0.499321 0.320545 0.882337 0.104536 1.26284 0.189091L9.04167 1.91772C9.35419 1.98717 9.56196 2.28375 9.5205 2.60119V2.60119C9.47463 2.95234 9.1437 3.19325 8.79544 3.129L0.95908 1.68338Z" fill="#6c6c6c"/>
<path d="M16.852 1.68338C17.3085 1.59915 17.5845 1.12988 17.4362 0.689908V0.689908C17.3117 0.320545 16.9287 0.104536 16.5482 0.189091L8.76937 1.91772C8.45685 1.98717 8.24907 2.28375 8.29054 2.60119V2.60119C8.33641 2.95234 8.66734 3.19325 9.0156 3.129L16.852 1.68338Z" fill="#6c6c6c"/>
</svg>
