<svg width="16" height="17" viewBox="0 0 16 17" fill="none" xmlns="http://www.w3.org/2000/svg">
<g clip-path="url(#clip0_5304_1196)">
<path d="M8.58103 0.602953C8.66069 0.37557 8.50159 0.159686 8.25437 0.159705V0.159705C8.07134 0.159719 7.89975 0.280825 7.84345 0.449721L4.09981 11.6813C4.06818 11.7762 4.09051 11.8744 4.15865 11.9401V11.9401C4.30816 12.0843 4.58645 12.005 4.65916 11.7975L8.58103 0.602953Z" fill="#6C6C6C"/>
<path d="M4.54162 11.6609C4.50842 11.5799 4.43522 11.5292 4.35046 11.5284V11.5284C4.18358 11.5269 4.05273 11.711 4.10152 11.8787L5.24355 15.8041C5.31406 16.0464 5.55871 16.1624 5.7912 16.0636V16.0636C6.04326 15.9566 6.17419 15.6443 6.07176 15.3944L4.54162 11.6609Z" fill="#6C6C6C"/>
<path d="M13.2178 1.93926C13.2766 1.78066 13.4295 1.69496 13.5895 1.73094V1.73094C13.8208 1.78295 13.962 2.05866 13.874 2.28633L9.53662 13.4996C9.5005 13.593 9.42057 13.6545 9.3261 13.6616V13.6616C9.11904 13.6773 8.95541 13.4387 9.03182 13.2326L13.2178 1.93926Z" fill="#6C6C6C"/>
<path d="M9.20985 13.2024C9.28709 13.1612 9.37584 13.1688 9.4416 13.2223V13.2223C9.57108 13.3276 9.55438 13.5528 9.40982 13.6508L6.02592 15.9448C5.817 16.0864 5.55463 16.0196 5.43861 15.7952V15.7952C5.31282 15.552 5.41127 15.2279 5.64959 15.1009L9.20985 13.2024Z" fill="#6C6C6C"/>
<path d="M10.0945 0.975344C10.113 0.923297 10.0857 0.866128 10.0337 0.847655V0.847655C9.98164 0.829183 9.92447 0.8564 9.906 0.908448L6.18976 11.379C6.17129 11.431 6.19851 11.4882 6.25056 11.5067V11.5067C6.3026 11.5251 6.35977 11.4979 6.37824 11.4459L10.0945 0.975344Z" fill="#6C6C6C"/>
<path d="M11.9871 1.62848C12.0055 1.57643 11.9783 1.51927 11.9263 1.50079V1.50079C11.8742 1.48232 11.8171 1.50954 11.7986 1.56158L8.08234 12.0321C8.06387 12.0842 8.09109 12.1413 8.14313 12.1598V12.1598C8.19518 12.1783 8.25235 12.1511 8.27082 12.099L11.9871 1.62848Z" fill="#6C6C6C"/>
</g>
<defs>
<clipPath id="clip0_5304_1196">
<rect width="16" height="17" fill="white"/>
</clipPath>
</defs>
</svg>
